PathFileType	4	(x/y/z)	S10_M20_T01
DataRate	CameraRate	NumFrames	NumMarkers	Units	OrigDataRate	OrigDataStartFrame	OrigNumFrames
240	240	6	51	mm	240	255	508
Frame#	Time	Sternum			R.Acromium			L.Acromium			Top.Head			R.ASIS			L.ASIS			R.PSIS			L.PSIS			R.Great.Tro			L.Great.Tro			R.Iliac.Crest			L.Iliac.Crest			V.Sacral			R.Thigh.Upper.Post			R.Thigh.Lower.Ant			R.Thigh.Lower.Post			R.Thigh.Upper.Ant			R.Knee.Lat			R.Knee.Med			R.Shank.Upper.Post			R.Shank.Lower.Ant			R.Shank.Lower.Post			R.Shank.Upper.Ant			R.Ankle.Lat			R.Ankle.Med			R.Heel.Upper			R.Heel.Med			R.Heel.Lat			R.Toe.Lat			R.Toe.Med			R.Toe.Tip			L.Thigh.Upper.Post			L.Thigh.Lower.Ant			L.Thigh.Lower.Post			L.Thigh.Upper.Ant			L.Knee.Lat			L.Knee.Med			L.Shank.Upper.Post			L.Shank.Lower.Ant			L.Shank.Lower.Post			L.Shank.Upper.Ant			L.Ankle.Lat			L.Ankle.Med			L.Heel.Upper			L.Heel.Med			L.Heel.Lat			L.Toe.Lat			L.Toe.Med			L.Toe.Tip			Cervical.Spine			Back			
		X1	Y1	Z1	X2	Y2	Z2	X3	Y3	Z3	X4	Y4	Z4	X5	Y5	Z5	X6	Y6	Z6	X7	Y7	Z7	X8	Y8	Z8	X9	Y9	Z9	X10	Y10	Z10	X11	Y11	Z11	X12	Y12	Z12	X13	Y13	Z13	X14	Y14	Z14	X15	Y15	Z15	X16	Y16	Z16	X17	Y17	Z17	X18	Y18	Z18	X19	Y19	Z19	X20	Y20	Z20	X21	Y21	Z21	X22	Y22	Z22	X23	Y23	Z23	X24	Y24	Z24	X25	Y25	Z25	X26	Y26	Z26	X27	Y27	Z27	X28	Y28	Z28	X29	Y29	Z29	X30	Y30	Z30	X31	Y31	Z31	X32	Y32	Z32	X33	Y33	Z33	X34	Y34	Z34	X35	Y35	Z35	X36	Y36	Z36	X37	Y37	Z37	X38	Y38	Z38	X39	Y39	Z39	X40	Y40	Z40	X41	Y41	Z41	X42	Y42	Z42	X43	Y43	Z43	X44	Y44	Z44	X45	Y45	Z45	X46	Y46	Z46	X47	Y47	Z47	X48	Y48	Z48	X49	Y49	Z49	X50	Y50	Z50	X51	Y51	Z51	

255	1.0583	-198	1287.6	383.44	-301.96	1441.2	547.81	-325.8	1474.1	243.28	-346.84	1759.8	423.96	-246.58	1015.2	492.69	-262.82	1033.7	262.37	-453.1	1039.3	416.69	-452.85	1045.4	336.02	-316.22	937.45	569.64	-325.21	968.03	204.04	-339.09	1097.3	544.95	-333.44	1109	237.64	-474.94	1007.7	381.54	-314.72	727.13	554.2	-265.54	647.72	512.53	-327.61	639.33	541.3	-250.25	737.43	521.46	-343.44	514.22	498.79	-355.75	522.43	372.2	-438.72	297.35	496.4	-381.28	228.43	478.14	-445.93	223.75	488.74	-367.88	304.27	485.25	-443.75	111.5	462.73	-428.48	122.49	386	-509.67	68.054	417.53	-498.79	38.299	391.44	-503.5	44.2	453.02	-332.09	39.117	499.57	-302.08	41.816	389.54	-243.52	56.916	433.26	-255.5	696.07	197.62	-155.52	650.07	210.35	-217.24	609.51	214.69	-187.19	734.02	193.45	-161.59	545.21	218.54	-130.75	539.32	347.21	-286.73	372.92	216.85	-253.76	267.15	216	-309.46	298.51	221.09	-230.7	340.77	211.63	-323.82	165.37	222.87	-296.18	166.64	305.18	-391.25	155.51	272.95	-387.12	120.22	303.64	-397.03	127.2	240.56	-238.89	64.252	184.76	-201.73	59.552	286.8	-150.4	61.483	235.7	-389.58	1508.5	415.43	-478.61	1304.3	399.78
256	1.0625	-193.48	1287.3	383.63	-297.08	1441.2	547.91	-321.46	1473.7	243.37	-341.77	1759.6	423.75	-242.37	1014.7	492.92	-258.26	1033.6	262.62	-448.76	1039.1	416.62	-448.4	1045.3	335.96	-312.42	937	569.72	-320.48	968.14	204.12	-334.81	1096.8	545.07	-328.84	1109	237.83	-470.57	1007.6	381.39	-312.27	726.82	554.27	-263.51	647.06	512.76	-325.72	639.1	541.38	-247.64	736.67	521.71	-342.51	514.07	499.02	-354.35	522.29	372.33	-438.35	297.49	496.43	-381.07	228.47	478.25	-445.7	223.92	488.79	-367.5	304.29	485.46	-443.66	111.57	462.69	-428.33	122.61	385.97	-509.63	68.095	417.49	-498.74	38.341	391.43	-503.48	44.25	452.98	-332.08	39.099	499.57	-302.06	41.804	389.53	-243.48	56.867	433.28	-249.35	696.55	197.28	-149.36	650.86	211.03	-211.03	610.09	214.51	-181.14	734.76	194.05	-155.03	545.74	218.97	-125.34	539.95	347.82	-276.6	370.34	216.5	-241.18	265.37	216.05	-297.64	295.44	220.69	-219.82	339.48	211.7	-308.95	161.98	222.54	-281.45	163.8	305.03	-376.25	150.44	272.45	-371.29	115.18	303.16	-381.21	121.96	240.08	-221.47	62.865	184.64	-184.43	58.988	286.77	-133.04	62.179	235.8	-384.91	1508.3	415.61	-474.04	1304.1	400.14
257	1.0667	-188.95	1287	383.8	-292.19	1441.2	548	-317.11	1473.2	243.45	-336.71	1759.4	423.54	-238.15	1014.1	493.14	-253.7	1033.4	262.85	-444.41	1038.8	416.54	-443.95	1045.2	335.88	-308.6	936.53	569.79	-315.75	968.2	204.19	-330.55	1096.4	545.17	-324.22	1108.9	237.99	-466.2	1007.4	381.23	-309.79	726.49	554.34	-261.46	646.38	512.96	-323.8	638.86	541.45	-245.01	735.89	521.94	-341.54	513.9	499.22	-352.94	522.14	372.44	-437.96	297.63	496.45	-380.83	228.51	478.36	-445.45	224.09	488.83	-367.09	304.31	485.64	-443.57	111.65	462.64	-428.18	122.71	385.93	-509.57	68.132	417.46	-498.68	38.384	391.42	-503.46	44.302	452.95	-332.07	39.083	499.57	-302.04	41.793	389.52	-243.44	56.819	433.3	-243.3	696.96	196.98	-143.29	651.56	211.7	-204.9	610.6	214.36	-175.17	735.4	194.66	-148.59	546.19	219.39	-120.02	540.46	348.41	-266.47	367.74	216.18	-228.6	263.63	216.09	-285.8	292.39	220.3	-208.97	338.2	211.76	-294	158.66	222.21	-266.67	161.02	304.87	-361.11	145.47	271.96	-355.33	110.26	302.67	-365.26	116.83	239.58	-204.02	61.607	184.52	-167.14	58.545	286.74	-115.71	62.99	235.9	-380.23	1508	415.77	-469.46	1303.9	400.49
258	1.0708	-184.41	1286.6	383.95	-287.29	1441.1	548.07	-312.75	1472.7	243.51	-331.64	1759.2	423.31	-233.93	1013.5	493.34	-249.12	1033.2	263.07	-440.05	1038.5	416.44	-439.49	1045	335.79	-304.78	936.03	569.85	-311.03	968.2	204.24	-326.28	1095.8	545.26	-319.59	1108.7	238.14	-461.82	1007.2	381.05	-307.28	726.14	554.39	-259.37	645.69	513.15	-321.86	638.6	541.51	-242.36	735.1	522.15	-340.52	513.73	499.41	-351.52	521.98	372.55	-437.53	297.76	496.46	-380.58	228.54	478.46	-445.16	224.26	488.88	-366.64	304.31	485.81	-443.48	111.74	462.58	-428.02	122.81	385.88	-509.51	68.168	417.42	-498.6	38.429	391.41	-503.44	44.357	452.91	-332.05	39.068	499.57	-302.02	41.783	389.51	-243.39	56.769	433.33	-237.33	697.3	196.71	-137.31	652.16	212.35	-198.86	611.03	214.24	-169.29	735.96	195.26	-142.27	546.54	219.8	-114.79	540.85	348.97	-256.37	365.14	215.88	-216.03	261.96	216.12	-273.95	289.36	219.93	-198.17	336.94	211.81	-278.98	155.44	221.87	-251.82	158.33	304.71	-345.84	140.6	271.46	-339.26	105.45	302.19	-349.2	111.82	239.09	-186.56	60.483	184.4	-149.84	58.229	286.7	-98.409	63.92	235.99	-375.54	1507.7	415.93	-464.87	1303.6	400.81
259	1.075	-179.86	1286.2	384.09	-282.38	1441	548.14	-308.38	1472.2	243.55	-326.58	1758.9	423.08	-229.71	1012.9	493.54	-244.54	1032.9	263.27	-435.69	1038.2	416.32	-435.01	1044.8	335.69	-300.96	935.5	569.9	-306.3	968.14	204.29	-322.02	1095.3	545.33	-314.95	1108.5	238.27	-457.43	1006.9	380.86	-304.74	725.78	554.44	-257.27	644.99	513.3	-319.88	638.33	541.56	-239.7	734.3	522.34	-339.45	513.54	499.57	-350.1	521.82	372.63	-437.07	297.89	496.47	-380.29	228.56	478.54	-444.85	224.44	488.92	-366.16	304.3	485.96	-443.37	111.83	462.52	-427.86	122.91	385.83	-509.44	68.202	417.38	-498.51	38.474	391.4	-503.42	44.415	452.87	-332.03	39.054	499.56	-302	41.772	389.5	-243.34	56.717	433.36	-231.47	697.56	196.47	-131.43	652.66	212.98	-192.92	611.37	214.14	-163.51	736.41	195.86	-136.07	546.81	220.2	-109.67	541.14	349.51	-246.28	362.52	215.6	-203.48	260.35	216.13	-262.08	286.36	219.57	-187.41	335.71	211.86	-263.9	152.32	221.54	-236.93	155.72	304.52	-330.45	135.85	270.98	-323.07	100.79	301.72	-333.02	106.96	238.59	-169.1	59.498	184.28	-132.55	58.047	286.66	-81.152	64.976	236.08	-370.84	1507.4	416.08	-460.28	1303.3	401.13
260	1.0792	-175.29	1285.7	384.2	-277.45	1440.8	548.19	-304	1471.6	243.58	-321.53	1758.5	422.85	-225.49	1012.3	493.72	-239.94	1032.6	263.46	-431.32	1037.8	416.18	-430.52	1044.5	335.56	-297.12	934.94	569.94	-301.57	968.01	204.33	-317.76	1094.7	545.38	-310.29	1108.2	238.39	-453.03	1006.6	380.66	-302.17	725.41	554.48	-255.13	644.28	513.43	-317.87	638.04	541.59	-237.01	733.49	522.51	-338.33	513.34	499.72	-348.67	521.65	372.71	-436.57	298.02	496.48	-379.97	228.58	478.62	-444.51	224.61	488.96	-365.65	304.28	486.09	-443.26	111.92	462.46	-427.7	123	385.76	-509.35	68.237	417.34	-498.41	38.519	391.38	-503.4	44.477	452.82	-332.01	39.042	499.55	-301.97	41.759	389.49	-243.29	56.661	433.39	-225.71	697.73	196.27	-125.65	653.06	213.6	-187.09	611.62	214.08	-157.82	736.76	196.44	-129.99	546.98	220.58	-104.64	541.3	350.01	-236.22	359.9	215.36	-190.95	258.8	216.13	-250.21	283.4	219.25	-176.71	334.5	211.9	-248.75	149.3	221.19	-221.99	153.21	304.33	-314.94	131.23	270.49	-306.77	96.271	301.26	-316.74	102.23	238.1	-151.64	58.658	184.17	-115.28	58.007	286.62	-63.942	66.162	236.17	-366.11	1507	416.22	-455.69	1303	401.42
